<svg version="1.1" id="Layer_1" xmlns="http://www.w3.org/2000/svg" xmlns:xlink="http://www.w3.org/1999/xlink" x="0px" y="0px"
	 width="100%" viewBox="0 0 512 512" enable-background="new 0 0 512 512" xml:space="preserve">
<path fill="none" opacity="1.000000" stroke="none" 
	d="
M250.000000,513.000000 
	C196.645767,513.000000 143.291550,513.000000 89.180771,512.706177 
	C95.502914,507.591339 96.129822,500.561432 96.109222,492.699188 
	C95.922729,421.539764 96.000000,350.379639 96.000000,279.219727 
	C96.000000,277.243652 96.000000,275.267578 96.000000,273.370117 
	C110.907822,270.476379 123.313690,263.745575 133.548447,252.968582 
	C153.747055,231.699875 160.035721,206.769531 151.262634,178.950806 
	C143.275803,153.625305 125.363503,137.521423 99.922691,130.232559 
	C96.296562,129.193665 95.968834,127.868118 95.972198,124.968201 
	C96.014549,88.471710 95.989815,51.975151 96.011955,15.478629 
	C96.014969,10.517952 94.598869,6.374568 90.195885,3.544062 
	C89.528084,3.114753 89.385513,1.868425 89.000000,1.000001 
	C142.354233,1.000000 195.708450,1.000000 249.818756,1.295105 
	C244.665619,5.408457 242.849930,10.741209 242.869461,17.792133 
	C243.079163,93.438835 242.979431,169.086349 243.061371,244.733566 
	C243.065445,248.471985 242.506195,250.154892 238.164642,251.238312 
	C226.288849,254.201843 215.619110,260.037140 206.871048,268.718140 
	C194.708435,280.787537 187.262451,295.156708 184.811142,312.440216 
	C182.669067,327.543457 184.982391,341.715454 191.641724,354.957214 
	C202.282593,376.116089 219.818832,389.040253 243.000000,394.463257 
	C243.000000,427.407318 243.103668,460.220795 242.922516,493.032654 
	C242.880539,500.635406 242.828156,507.858673 250.479095,512.262268 
	C250.319397,512.508179 250.159698,512.754089 250.000000,513.000000 
z"/>
<path fill="none" opacity="1.000000" stroke="none" 
	d="
M425.000000,513.000000 
	C371.979095,513.000000 318.958221,513.000000 265.181274,512.704895 
	C270.336487,508.591003 272.222626,503.263092 272.137024,496.203094 
	C271.801758,468.543274 272.000000,440.876953 272.000000,413.213074 
	C272.000000,406.902466 272.000000,400.591888 272.000000,394.289307 
	C289.986572,390.813324 304.570221,381.674561 315.395355,367.799316 
	C329.921051,349.180817 334.794189,327.562683 328.865540,304.491791 
	C321.827515,277.103973 304.103058,259.270233 277.040894,251.245743 
	C272.957397,250.034882 271.919250,248.899857 271.924652,244.948044 
	C272.026917,170.289001 271.951233,95.629715 272.074188,20.970745 
	C272.086731,13.369551 272.175720,6.141597 264.521057,1.737880 
	C264.680695,1.491922 264.840363,1.245963 265.000000,1.000002 
	C318.020905,1.000000 371.041779,1.000000 424.818970,1.297441 
	C419.838898,5.497253 417.541962,10.881314 417.928101,17.808287 
	C418.270782,23.955849 418.000000,30.137602 418.000000,36.304264 
	C418.000000,65.804237 418.013062,95.304230 417.972748,124.804153 
	C417.969849,126.931351 418.819366,129.272659 415.201599,130.091293 
	C401.414886,133.211014 390.015289,140.422516 379.973145,150.393600 
	C357.928894,172.281799 352.902191,206.604782 366.591034,233.947876 
	C376.423920,253.588760 392.248688,266.845337 413.597809,272.616302 
	C417.627197,273.705505 418.045868,275.190887 418.043304,278.519867 
	C417.986633,351.686432 417.937805,424.853271 418.174774,498.019073 
	C418.187225,501.874237 420.611786,505.772308 422.170410,509.544189 
	C422.714569,510.861023 424.034393,511.857330 425.000000,513.000000 
z"/>
<path fill="none" opacity="1.000000" stroke="none" 
	d="
M74.000000,513.000000 
	C49.682854,513.000000 25.365705,513.000000 1.051913,513.000000 
	C1.055266,342.333313 1.055266,171.666656 1.055266,1.000000 
	C25.094584,1.000000 49.078632,1.000000 73.818733,1.294888 
	C67.841148,5.911222 65.966766,12.438092 65.977753,19.976181 
	C66.028259,54.619305 66.000000,89.262543 66.000000,123.905739 
	C66.000000,125.878441 66.000000,127.851143 66.000000,129.742294 
	C33.688194,136.254044 10.408580,163.412537 8.122925,195.203873 
	C5.177154,236.176804 31.741179,265.645416 66.000000,273.576172 
	C66.000000,275.340179 66.000000,277.158264 66.000000,278.976318 
	C66.000000,350.594452 65.961250,422.212677 66.060898,493.830658 
	C66.070686,500.870209 66.978050,507.883392 74.184792,511.884003 
	C74.295570,511.945465 74.069092,512.614502 74.000000,513.000000 
z"/>
<path fill="none" opacity="1.000000" stroke="none" 
	d="
M440.000000,1.000000 
	C464.317169,1.000000 488.634308,1.000000 512.948120,1.000003 
	C512.944702,171.666672 512.944702,342.333344 512.944702,513.000000 
	C488.905334,513.000000 464.921326,513.000000 440.181274,512.705078 
	C446.160004,508.087860 448.025116,501.558899 448.021332,494.020569 
	C447.985596,422.391602 448.000000,350.762604 448.000000,279.133636 
	C448.000000,277.159424 448.000000,275.185181 448.000000,273.290924 
	C480.450104,266.594299 503.692017,239.415787 505.900970,207.314117 
	C508.802094,165.153366 480.776306,136.975540 448.000000,129.487213 
	C448.000000,127.904221 448.000000,126.252342 448.000000,124.600471 
	C448.000000,89.785454 448.006653,54.970436 447.994568,20.155424 
	C447.992065,12.926609 446.768188,6.226545 439.816284,2.117193 
	C439.698517,2.047593 439.930969,1.385572 440.000000,1.000000 
z"/>
<path fill="#FFFFFF" opacity="1.000000" stroke="none" 
	d="
M439.533875,1.000000 
	C439.930969,1.385572 439.698517,2.047593 439.816284,2.117193 
	C446.768188,6.226545 447.992065,12.926609 447.994568,20.155424 
	C448.006653,54.970436 448.000000,89.785454 448.000000,124.600471 
	C448.000000,126.252342 448.000000,127.904221 448.000000,129.487213 
	C480.776306,136.975540 508.802094,165.153366 505.900970,207.314117 
	C503.692017,239.415787 480.450104,266.594299 448.000000,273.290924 
	C448.000000,275.185181 448.000000,277.159424 448.000000,279.133636 
	C448.000000,350.762604 447.985596,422.391602 448.021332,494.020569 
	C448.025116,501.558899 446.160004,508.087860 439.712616,512.705078 
	C435.310760,513.000000 430.621490,513.000000 425.466125,513.000000 
	C424.034393,511.857330 422.714569,510.861023 422.170410,509.544189 
	C420.611786,505.772308 418.187225,501.874237 418.174774,498.019073 
	C417.937805,424.853271 417.986633,351.686432 418.043304,278.519867 
	C418.045868,275.190887 417.627197,273.705505 413.597809,272.616302 
	C392.248688,266.845337 376.423920,253.588760 366.591034,233.947876 
	C352.902191,206.604782 357.928894,172.281799 379.973145,150.393600 
	C390.015289,140.422516 401.414886,133.211014 415.201599,130.091293 
	C418.819366,129.272659 417.969849,126.931351 417.972748,124.804153 
	C418.013062,95.304230 418.000000,65.804237 418.000000,36.304264 
	C418.000000,30.137602 418.270782,23.955849 417.928101,17.808287 
	C417.541962,10.881314 419.838898,5.497253 425.287659,1.297441 
	C429.689240,1.000000 434.378510,1.000000 439.533875,1.000000 
M389.999786,210.353851 
	C391.523193,218.688126 395.488434,225.844421 401.356384,231.756622 
	C412.703949,243.189774 426.426666,247.292160 442.289520,244.006897 
	C459.889374,240.361908 474.001526,224.524292 475.927002,207.034821 
	C477.628540,191.579590 472.558655,178.436752 460.674500,168.214417 
	C450.594574,159.543991 438.498199,156.087524 425.742584,158.353897 
	C409.503906,161.239105 397.732361,170.675079 391.792786,186.619080 
	C389.002594,194.108948 387.896912,201.640671 389.999786,210.353851 
z"/>
<path fill="#FFFFFF" opacity="1.000000" stroke="none" 
	d="
M74.466118,513.000000 
	C74.069092,512.614502 74.295570,511.945465 74.184792,511.884003 
	C66.978050,507.883392 66.070686,500.870209 66.060898,493.830658 
	C65.961250,422.212677 66.000000,350.594452 66.000000,278.976318 
	C66.000000,277.158264 66.000000,275.340179 66.000000,273.576172 
	C31.741179,265.645416 5.177154,236.176804 8.122925,195.203873 
	C10.408580,163.412537 33.688194,136.254044 66.000000,129.742294 
	C66.000000,127.851143 66.000000,125.878441 66.000000,123.905739 
	C66.000000,89.262543 66.028259,54.619305 65.977753,19.976181 
	C65.966766,12.438092 67.841148,5.911222 74.287392,1.294888 
	C78.689255,1.000000 83.378510,1.000000 88.533875,1.000001 
	C89.385513,1.868425 89.528084,3.114753 90.195885,3.544062 
	C94.598869,6.374568 96.014969,10.517952 96.011955,15.478629 
	C95.989815,51.975151 96.014549,88.471710 95.972198,124.968201 
	C95.968834,127.868118 96.296562,129.193665 99.922691,130.232559 
	C125.363503,137.521423 143.275803,153.625305 151.262634,178.950806 
	C160.035721,206.769531 153.747055,231.699875 133.548447,252.968582 
	C123.313690,263.745575 110.907822,270.476379 96.000000,273.370117 
	C96.000000,275.267578 96.000000,277.243652 96.000000,279.219727 
	C96.000000,350.379639 95.922729,421.539764 96.109222,492.699188 
	C96.129822,500.561432 95.502914,507.591339 88.712112,512.706177 
	C84.310745,513.000000 79.621490,513.000000 74.466118,513.000000 
M102.251831,163.023788 
	C92.480858,158.311172 82.313942,156.351471 71.616348,159.023636 
	C48.994766,164.674301 34.313263,184.764679 38.292652,208.549606 
	C42.599670,234.292801 66.573151,250.295792 92.146263,243.796036 
	C116.603333,237.579956 130.615753,211.819382 122.984421,188.641296 
	C119.412270,177.791870 112.670258,169.379959 102.251831,163.023788 
z"/>
<path fill="#FFFFFF" opacity="1.000000" stroke="none" 
	d="
M264.533875,1.000002 
	C264.840363,1.245963 264.680695,1.491922 264.521057,1.737880 
	C272.175720,6.141597 272.086731,13.369551 272.074188,20.970745 
	C271.951233,95.629715 272.026917,170.289001 271.924652,244.948044 
	C271.919250,248.899857 272.957397,250.034882 277.040894,251.245743 
	C304.103058,259.270233 321.827515,277.103973 328.865540,304.491791 
	C334.794189,327.562683 329.921051,349.180817 315.395355,367.799316 
	C304.570221,381.674561 289.986572,390.813324 272.000000,394.289307 
	C272.000000,400.591888 272.000000,406.902466 272.000000,413.213074 
	C272.000000,440.876953 271.801758,468.543274 272.137024,496.203094 
	C272.222626,503.263092 270.336487,508.591003 264.712585,512.704895 
	C260.310730,513.000000 255.621490,513.000000 250.466125,513.000000 
	C250.159698,512.754089 250.319397,512.508179 250.479095,512.262268 
	C242.828156,507.858673 242.880539,500.635406 242.922516,493.032654 
	C243.103668,460.220795 243.000000,427.407318 243.000000,394.463257 
	C219.818832,389.040253 202.282593,376.116089 191.641724,354.957214 
	C184.982391,341.715454 182.669067,327.543457 184.811142,312.440216 
	C187.262451,295.156708 194.708435,280.787537 206.871048,268.718140 
	C215.619110,260.037140 226.288849,254.201843 238.164642,251.238312 
	C242.506195,250.154892 243.065445,248.471985 243.061371,244.733566 
	C242.979431,169.086349 243.079163,93.438835 242.869461,17.792133 
	C242.849930,10.741209 244.665619,5.408457 250.287415,1.295105 
	C254.689255,1.000000 259.378510,1.000000 264.533875,1.000002 
M214.000092,317.806793 
	C212.817978,330.998718 216.761627,342.779999 225.832108,352.066162 
	C236.412796,362.898407 249.475555,367.875183 265.051392,365.058167 
	C290.832916,360.395416 306.918915,334.639832 299.230682,309.690369 
	C293.494812,291.076660 275.084656,276.583984 253.412918,278.903564 
	C243.690674,279.944153 235.561768,283.695038 228.364029,290.098541 
	C220.270767,297.298828 215.779617,306.341980 214.000092,317.806793 
z"/>
<path fill="none" opacity="1.000000" stroke="none" 
	d="
M389.997742,209.912308 
	C387.896912,201.640671 389.002594,194.108948 391.792786,186.619080 
	C397.732361,170.675079 409.503906,161.239105 425.742584,158.353897 
	C438.498199,156.087524 450.594574,159.543991 460.674500,168.214417 
	C472.558655,178.436752 477.628540,191.579590 475.927002,207.034821 
	C474.001526,224.524292 459.889374,240.361908 442.289520,244.006897 
	C426.426666,247.292160 412.703949,243.189774 401.356384,231.756622 
	C395.488434,225.844421 391.523193,218.688126 389.997742,209.912308 
z"/>
<path fill="none" opacity="1.000000" stroke="none" 
	d="
M102.585983,163.212021 
	C112.670258,169.379959 119.412270,177.791870 122.984421,188.641296 
	C130.615753,211.819382 116.603333,237.579956 92.146263,243.796036 
	C66.573151,250.295792 42.599670,234.292801 38.292652,208.549606 
	C34.313263,184.764679 48.994766,164.674301 71.616348,159.023636 
	C82.313942,156.351471 92.480858,158.311172 102.585983,163.212021 
z"/>
<path fill="none" opacity="1.000000" stroke="none" 
	d="
M214.000839,317.345276 
	C215.779617,306.341980 220.270767,297.298828 228.364029,290.098541 
	C235.561768,283.695038 243.690674,279.944153 253.412918,278.903564 
	C275.084656,276.583984 293.494812,291.076660 299.230682,309.690369 
	C306.918915,334.639832 290.832916,360.395416 265.051392,365.058167 
	C249.475555,367.875183 236.412796,362.898407 225.832108,352.066162 
	C216.761627,342.779999 212.817978,330.998718 214.000839,317.345276 
z"/>
</svg>