<svg version="1.1" id="Layer_1" xmlns="http://www.w3.org/2000/svg" xmlns:xlink="http://www.w3.org/1999/xlink" x="0px" y="0px"
	 width="100%" viewBox="0 0 512 512"  xml:space="preserve">
<path fill="#ffffff" opacity="1.000000" stroke="none" 
	d="
M0.999997,361.000000 
	C1.000000,359.933472 1.000000,358.866974 1.239651,357.757019 
	C2.360024,357.271393 3.260488,356.864319 4.118587,356.381866 
	C27.709167,343.118042 51.307377,329.867645 74.872574,316.558838 
	C79.697029,313.834167 84.395035,310.885620 89.493668,307.835480 
	C79.216354,301.999023 69.488106,296.522034 59.806190,290.964294 
	C46.887814,283.548676 34.051174,275.989563 21.088575,268.652557 
	C14.494952,264.920532 7.702542,261.539642 0.999998,258.000000 
	C1.000000,257.250000 1.000000,256.500000 1.247186,255.715637 
	C4.713110,253.777298 7.902062,251.820755 11.155289,249.977661 
	C37.287407,235.172729 63.431652,220.389206 89.864487,205.433746 
	C83.867256,202.112991 78.029785,198.971207 72.278061,195.679565 
	C51.848217,183.987869 31.470341,172.205139 11.012091,160.563553 
	C7.837175,158.756897 4.345302,157.507233 1.000000,156.000000 
	C1.000000,155.250000 1.000000,154.500000 1.366716,153.369232 
	C20.199102,142.460632 38.640953,131.890732 57.137215,121.416931 
	C75.221169,111.176605 93.396545,101.097542 111.467125,90.833824 
	C137.164886,76.238029 162.804428,61.539703 188.467163,46.882244 
	C210.474030,34.312851 232.463654,21.713013 254.526566,9.242811 
	C255.670059,8.596492 257.751556,8.459263 258.854584,9.067496 
	C271.643799,16.119835 284.335999,23.348436 297.039276,30.556177 
	C316.099396,41.370758 335.141083,52.217739 354.203491,63.028278 
	C367.478119,70.556480 380.796143,78.008408 394.055634,85.563126 
	C412.387726,96.008011 430.685577,106.512955 448.993011,117.001068 
	C460.402466,123.537415 471.762238,130.161697 483.219055,136.613800 
	C493.091095,142.173401 503.068939,147.545166 513.000000,153.000000 
	C513.000000,153.750000 513.000000,154.500000 512.762451,155.270355 
	C511.345001,155.858932 510.124298,156.355911 508.991333,157.005829 
	C480.830750,173.159363 452.679474,189.329056 424.513214,205.503525 
	C432.160278,209.943253 439.822388,214.456451 447.545654,218.862411 
	C464.458496,228.510834 481.370514,238.161713 498.354095,247.684570 
	C503.108551,250.350449 508.111206,252.573715 513.000000,255.000000 
	C513.000000,255.750000 513.000000,256.500000 512.629639,257.628052 
	C508.242126,260.124756 504.162079,262.133057 500.218658,264.381012 
	C482.286652,274.603180 464.383789,284.876526 446.490356,295.166107 
	C439.249481,299.329926 432.059448,303.582123 424.554016,307.964752 
	C435.193787,314.109528 445.277374,319.968201 455.394867,325.767670 
	C469.336639,333.759277 483.243774,341.814697 497.292419,349.614624 
	C502.339355,352.416687 507.753479,354.557434 513.000000,357.000000 
	C513.000000,358.066528 513.000000,359.133026 512.759521,360.248016 
	C503.999847,365.047852 495.441833,369.731232 486.969910,374.565460 
	C471.600311,383.335571 456.309052,392.242920 440.934052,401.003510 
	C427.669983,408.561279 414.300201,415.933563 401.040588,423.499115 
	C385.674866,432.266327 370.399323,441.191467 355.045471,449.979675 
	C342.363007,457.238831 329.598816,464.355255 316.915222,471.612488 
	C299.288208,481.698120 281.573853,491.642273 264.178558,502.114807 
	C259.011963,505.225250 255.343292,505.552338 249.996292,502.197693 
	C237.627686,494.437775 224.631866,487.682220 211.946304,480.421661 
	C194.326279,470.336823 176.786331,460.112000 159.157837,450.042114 
	C144.211105,441.504150 129.146255,433.172821 114.208397,424.619507 
	C96.587593,414.529877 79.061646,404.274750 61.467571,394.138214 
	C45.987179,385.219482 30.516558,376.281677 14.938781,367.535461 
	C10.476188,365.029877 5.656142,363.160889 0.999997,361.000000 
M424.658447,182.043945 
	C440.919342,172.881256 457.180206,163.718567 474.190125,154.133789 
	C460.209869,146.275574 447.466095,139.143997 434.753296,131.957642 
	C422.167084,124.842819 409.605438,117.684464 397.045135,110.523956 
	C380.401428,101.035538 363.770264,91.525223 347.132324,82.026688 
	C333.454010,74.217804 319.781464,66.398811 306.092285,58.609039 
	C290.566620,49.774212 275.051788,40.919331 259.440826,32.237522 
	C258.185120,31.539165 255.890396,31.507812 254.638626,32.191696 
	C243.666199,38.186314 232.804749,44.385319 221.942032,50.579220 
	C203.608978,61.032715 185.318924,71.561722 166.972748,81.992050 
	C153.704742,89.535278 140.349426,96.924843 127.079590,104.464859 
	C110.994652,113.604446 94.966896,122.844604 78.899002,132.014267 
	C66.255608,139.229645 53.588882,146.404144 39.402542,154.466293 
	C40.967480,155.157181 41.771362,155.433945 42.499382,155.845047 
	C56.892532,163.972458 71.279068,172.111588 85.662514,180.256165 
	C103.319443,190.254318 121.007271,200.198578 138.617630,210.278122 
	C158.504684,221.660797 178.311493,233.183517 198.169952,244.616241 
	C216.200241,254.996414 234.309586,265.241241 252.248291,275.776947 
	C255.846985,277.890533 258.649139,277.496094 261.980743,275.562927 
	C277.410278,266.609955 292.910797,257.779114 308.396210,248.922638 
	C320.936951,241.750275 333.504913,234.625458 346.038208,227.440094 
	C361.377686,218.645874 376.699738,209.821136 392.017609,200.989304 
	C402.699036,194.830719 413.360779,188.638000 424.658447,182.043945 
M351.372223,326.939270 
	C392.207703,303.529114 433.043152,280.118927 473.975922,256.652985 
	C462.093933,249.799927 450.457062,243.027863 438.760712,236.360153 
	C428.179901,230.328339 417.550934,224.380188 406.892548,218.486755 
	C405.758240,217.859543 403.905151,217.163254 403.025330,217.651642 
	C391.242981,224.191696 379.566437,230.922729 367.879852,237.634659 
	C350.282379,247.741379 332.701111,257.876343 315.106506,267.988098 
	C299.769531,276.802429 284.476746,285.695831 269.055328,294.360138 
	C262.946899,297.792084 257.762939,302.775757 249.234497,297.069305 
	C235.092682,287.606903 219.760666,279.927826 204.963821,271.438660 
	C187.352753,261.334900 169.787048,251.152084 152.183228,241.035690 
	C139.231186,233.592545 126.201279,226.283051 113.323761,218.713776 
	C110.896576,217.287094 109.149864,217.193314 106.750793,218.604019 
	C99.478928,222.879990 92.042496,226.874832 84.714012,231.056030 
	C69.886208,239.515884 55.087250,248.026306 39.940887,256.708191 
	C45.691093,259.979889 51.033123,263.024963 56.380394,266.060822 
	C78.685593,278.724396 101.014870,291.345764 123.292580,304.057495 
	C148.391327,318.378967 173.452713,332.766022 198.514175,347.152710 
	C216.808319,357.654633 235.025467,368.292999 253.434006,378.589691 
	C255.288467,379.626953 258.638947,379.540833 260.591675,378.566376 
	C266.968750,375.384094 273.004425,371.521698 279.199615,367.970062 
	C303.003906,354.323334 326.819183,340.695648 351.372223,326.939270 
M102.347336,323.931305 
	C81.794464,335.492584 61.241596,347.053864 40.259609,358.856537 
	C41.606194,359.954254 42.171688,360.565094 42.861744,360.955994 
	C62.928738,372.323059 83.043488,383.606232 103.076935,395.031982 
	C129.880722,410.319122 156.631683,425.699005 183.389145,441.067261 
	C206.495880,454.338684 229.605698,467.605347 252.644409,480.994080 
	C255.831955,482.846497 258.516876,482.581665 261.514343,480.847748 
	C281.198578,469.461182 300.883240,458.074738 320.628052,446.793762 
	C340.520966,435.428162 360.518463,424.245483 380.407349,412.872925 
	C405.805084,398.350403 431.139038,383.716400 456.502350,369.133728 
	C462.070129,365.932526 467.645844,362.745178 473.199860,359.561798 
	C472.775330,358.744446 472.705139,358.341034 472.478149,358.210724 
	C460.935791,351.584106 449.380280,344.980347 437.825714,338.375000 
	C428.379517,332.974976 419.001831,327.448334 409.436096,322.269104 
	C407.132477,321.021851 404.967163,318.855225 401.396057,320.947113 
	C379.981598,333.491272 358.371185,345.700684 336.838013,358.042450 
	C311.379578,372.634003 285.960449,387.294708 260.416870,401.735504 
	C258.775726,402.663269 255.773743,402.767426 254.147400,401.885437 
	C242.019043,395.308014 230.047913,388.437500 218.085571,381.557861 
	C200.499359,371.443909 182.976440,361.220001 165.398376,351.091766 
	C149.938766,342.184174 134.476456,333.279938 118.938698,324.510010 
	C113.880699,321.655182 108.693993,317.374512 102.347336,323.931305 
z"/>
<path fill="none" opacity="1.000000" stroke="none" 
	d="
M0.999997,361.468658 
	C5.656142,363.160889 10.476188,365.029877 14.938781,367.535461 
	C30.516558,376.281677 45.987179,385.219482 61.467571,394.138214 
	C79.061646,404.274750 96.587593,414.529877 114.208397,424.619507 
	C129.146255,433.172821 144.211105,441.504150 159.157837,450.042114 
	C176.786331,460.112000 194.326279,470.336823 211.946304,480.421661 
	C224.631866,487.682220 237.627686,494.437775 249.996292,502.197693 
	C255.343292,505.552338 259.011963,505.225250 264.178558,502.114807 
	C281.573853,491.642273 299.288208,481.698120 316.915222,471.612488 
	C329.598816,464.355255 342.363007,457.238831 355.045471,449.979675 
	C370.399323,441.191467 385.674866,432.266327 401.040588,423.499115 
	C414.300201,415.933563 427.669983,408.561279 440.934052,401.003510 
	C456.309052,392.242920 471.600311,383.335571 486.969910,374.565460 
	C495.441833,369.731232 503.999847,365.047852 512.759521,360.648254 
	C513.000000,411.639496 513.000000,462.278961 513.000000,512.959229 
	C342.452087,512.959229 171.904160,512.959229 1.000000,512.959229 
	C1.000000,462.646332 1.000000,412.291840 0.999997,361.468658 
z"/>
<path fill="none" opacity="1.000000" stroke="none" 
	d="
M513.000000,152.531342 
	C503.068939,147.545166 493.091095,142.173401 483.219055,136.613800 
	C471.762238,130.161697 460.402466,123.537415 448.993011,117.001068 
	C430.685577,106.512955 412.387726,96.008011 394.055634,85.563126 
	C380.796143,78.008408 367.478119,70.556480 354.203491,63.028278 
	C335.141083,52.217739 316.099396,41.370758 297.039276,30.556177 
	C284.335999,23.348436 271.643799,16.119835 258.854584,9.067496 
	C257.751556,8.459263 255.670059,8.596492 254.526566,9.242811 
	C232.463654,21.713013 210.474030,34.312851 188.467163,46.882244 
	C162.804428,61.539703 137.164886,76.238029 111.467125,90.833824 
	C93.396545,101.097542 75.221169,111.176605 57.137215,121.416931 
	C38.640953,131.890732 20.199102,142.460632 1.366716,152.994232 
	C1.000000,102.360489 1.000000,51.720985 1.000000,1.040738 
	C171.548019,1.040738 342.096069,1.040738 513.000000,1.040738 
	C513.000000,51.353668 513.000000,101.708176 513.000000,152.531342 
z"/>
<path fill="none" opacity="1.000000" stroke="none" 
	d="
M1.000000,156.468658 
	C4.345302,157.507233 7.837175,158.756897 11.012091,160.563553 
	C31.470341,172.205139 51.848217,183.987869 72.278061,195.679565 
	C78.029785,198.971207 83.867256,202.112991 89.864487,205.433746 
	C63.431652,220.389206 37.287407,235.172729 11.155289,249.977661 
	C7.902062,251.820755 4.713110,253.777298 1.247186,255.340637 
	C1.000000,222.312439 1.000000,189.624878 1.000000,156.468658 
z"/>
<path fill="none" opacity="1.000000" stroke="none" 
	d="
M0.999998,258.468658 
	C7.702542,261.539642 14.494952,264.920532 21.088575,268.652557 
	C34.051174,275.989563 46.887814,283.548676 59.806190,290.964294 
	C69.488106,296.522034 79.216354,301.999023 89.493668,307.835480 
	C84.395035,310.885620 79.697029,313.834167 74.872574,316.558838 
	C51.307377,329.867645 27.709167,343.118042 4.118587,356.381866 
	C3.260488,356.864319 2.360024,357.271393 1.239651,357.356812 
	C1.000000,324.312439 1.000000,291.624878 0.999998,258.468658 
z"/>
<path fill="none" opacity="1.000000" stroke="none" 
	d="
M513.000000,356.531342 
	C507.753479,354.557434 502.339355,352.416687 497.292419,349.614624 
	C483.243774,341.814697 469.336639,333.759277 455.394867,325.767670 
	C445.277374,319.968201 435.193787,314.109528 424.554016,307.964752 
	C432.059448,303.582123 439.249481,299.329926 446.490356,295.166107 
	C464.383789,284.876526 482.286652,274.603180 500.218658,264.381012 
	C504.162079,262.133057 508.242126,260.124756 512.629639,258.003052 
	C513.000000,290.687561 513.000000,323.375122 513.000000,356.531342 
z"/>
<path fill="none" opacity="1.000000" stroke="none" 
	d="
M513.000000,254.531342 
	C508.111206,252.573715 503.108551,250.350449 498.354095,247.684570 
	C481.370514,238.161713 464.458496,228.510834 447.545654,218.862411 
	C439.822388,214.456451 432.160278,209.943253 424.513214,205.503525 
	C452.679474,189.329056 480.830750,173.159363 508.991333,157.005829 
	C510.124298,156.355911 511.345001,155.858932 512.762451,155.645355 
	C513.000000,188.687561 513.000000,221.375122 513.000000,254.531342 
z"/>
<path fill="none" opacity="1.000000" stroke="none" 
	d="
M424.344849,182.252228 
	C413.360779,188.638000 402.699036,194.830719 392.017609,200.989304 
	C376.699738,209.821136 361.377686,218.645874 346.038208,227.440094 
	C333.504913,234.625458 320.936951,241.750275 308.396210,248.922638 
	C292.910797,257.779114 277.410278,266.609955 261.980743,275.562927 
	C258.649139,277.496094 255.846985,277.890533 252.248291,275.776947 
	C234.309586,265.241241 216.200241,254.996414 198.169952,244.616241 
	C178.311493,233.183517 158.504684,221.660797 138.617630,210.278122 
	C121.007271,200.198578 103.319443,190.254318 85.662514,180.256165 
	C71.279068,172.111588 56.892532,163.972458 42.499382,155.845047 
	C41.771362,155.433945 40.967480,155.157181 39.402542,154.466293 
	C53.588882,146.404144 66.255608,139.229645 78.899002,132.014267 
	C94.966896,122.844604 110.994652,113.604446 127.079590,104.464859 
	C140.349426,96.924843 153.704742,89.535278 166.972748,81.992050 
	C185.318924,71.561722 203.608978,61.032715 221.942032,50.579220 
	C232.804749,44.385319 243.666199,38.186314 254.638626,32.191696 
	C255.890396,31.507812 258.185120,31.539165 259.440826,32.237522 
	C275.051788,40.919331 290.566620,49.774212 306.092285,58.609039 
	C319.781464,66.398811 333.454010,74.217804 347.132324,82.026688 
	C363.770264,91.525223 380.401428,101.035538 397.045135,110.523956 
	C409.605438,117.684464 422.167084,124.842819 434.753296,131.957642 
	C447.466095,139.143997 460.209869,146.275574 474.190125,154.133789 
	C457.180206,163.718567 440.919342,172.881256 424.344849,182.252228 
z"/>
<path fill="none" opacity="1.000000" stroke="none" 
	d="
M351.001282,327.000061 
	C326.819183,340.695648 303.003906,354.323334 279.199615,367.970062 
	C273.004425,371.521698 266.968750,375.384094 260.591675,378.566376 
	C258.638947,379.540833 255.288467,379.626953 253.434006,378.589691 
	C235.025467,368.292999 216.808319,357.654633 198.514175,347.152710 
	C173.452713,332.766022 148.391327,318.378967 123.292580,304.057495 
	C101.014870,291.345764 78.685593,278.724396 56.380394,266.060822 
	C51.033123,263.024963 45.691093,259.979889 39.940887,256.708191 
	C55.087250,248.026306 69.886208,239.515884 84.714012,231.056030 
	C92.042496,226.874832 99.478928,222.879990 106.750793,218.604019 
	C109.149864,217.193314 110.896576,217.287094 113.323761,218.713776 
	C126.201279,226.283051 139.231186,233.592545 152.183228,241.035690 
	C169.787048,251.152084 187.352753,261.334900 204.963821,271.438660 
	C219.760666,279.927826 235.092682,287.606903 249.234497,297.069305 
	C257.762939,302.775757 262.946899,297.792084 269.055328,294.360138 
	C284.476746,285.695831 299.769531,276.802429 315.106506,267.988098 
	C332.701111,257.876343 350.282379,247.741379 367.879852,237.634659 
	C379.566437,230.922729 391.242981,224.191696 403.025330,217.651642 
	C403.905151,217.163254 405.758240,217.859543 406.892548,218.486755 
	C417.550934,224.380188 428.179901,230.328339 438.760712,236.360153 
	C450.457062,243.027863 462.093933,249.799927 473.975922,256.652985 
	C433.043152,280.118927 392.207703,303.529114 351.001282,327.000061 
z"/>
<path fill="none" opacity="1.000000" stroke="none" 
	d="
M102.659637,323.715393 
	C108.693993,317.374512 113.880699,321.655182 118.938698,324.510010 
	C134.476456,333.279938 149.938766,342.184174 165.398376,351.091766 
	C182.976440,361.220001 200.499359,371.443909 218.085571,381.557861 
	C230.047913,388.437500 242.019043,395.308014 254.147400,401.885437 
	C255.773743,402.767426 258.775726,402.663269 260.416870,401.735504 
	C285.960449,387.294708 311.379578,372.634003 336.838013,358.042450 
	C358.371185,345.700684 379.981598,333.491272 401.396057,320.947113 
	C404.967163,318.855225 407.132477,321.021851 409.436096,322.269104 
	C419.001831,327.448334 428.379517,332.974976 437.825714,338.375000 
	C449.380280,344.980347 460.935791,351.584106 472.478149,358.210724 
	C472.705139,358.341034 472.775330,358.744446 473.199860,359.561798 
	C467.645844,362.745178 462.070129,365.932526 456.502350,369.133728 
	C431.139038,383.716400 405.805084,398.350403 380.407349,412.872925 
	C360.518463,424.245483 340.520966,435.428162 320.628052,446.793762 
	C300.883240,458.074738 281.198578,469.461182 261.514343,480.847748 
	C258.516876,482.581665 255.831955,482.846497 252.644409,480.994080 
	C229.605698,467.605347 206.495880,454.338684 183.389145,441.067261 
	C156.631683,425.699005 129.880722,410.319122 103.076935,395.031982 
	C83.043488,383.606232 62.928738,372.323059 42.861744,360.955994 
	C42.171688,360.565094 41.606194,359.954254 40.259609,358.856537 
	C61.241596,347.053864 81.794464,335.492584 102.659637,323.715393 
z"/>
</svg>