<svg version="1.1" id="Layer_1" xmlns="http://www.w3.org/2000/svg" xmlns:xlink="http://www.w3.org/1999/xlink" x="0px" y="0px"
	 width="100%" viewBox="0 0 512 512" enable-background="new 0 0 512 512" xml:space="preserve">
<path fill="none" opacity="1.000000" stroke="none" 
	d="
M278.000000,1.000002 
	C356.298340,1.000000 434.596680,1.000000 512.947510,1.000000 
	C512.947510,171.555450 512.947510,342.110901 512.947510,513.000000 
	C436.978882,513.000000 360.957306,513.000000 284.128113,512.671021 
	C284.156281,511.898163 284.946350,511.226196 285.835266,511.048370 
	C290.610168,510.093414 295.457947,509.466187 300.191956,508.349976 
	C317.144867,504.352844 333.501038,498.605499 348.219025,489.190399 
	C358.874329,482.374115 369.677155,475.460449 379.092316,467.101318 
	C399.125366,449.315277 414.355316,427.823517 425.069122,403.094757 
	C434.451965,381.437958 438.579346,358.734619 439.904266,335.406464 
	C440.219666,329.853607 439.531494,324.211945 438.954254,318.647522 
	C438.044617,309.878235 437.496613,300.996552 435.631134,292.415588 
	C430.452545,268.594635 421.172272,246.308334 406.698395,226.668198 
	C398.898285,216.083939 389.366364,206.761337 380.440216,197.030533 
	C377.818390,194.172363 375.797089,191.734009 375.851715,187.288620 
	C376.158722,162.300385 376.301178,137.300613 375.819794,112.317902 
	C375.671509,104.622147 373.899963,96.835976 371.975067,89.320869 
	C367.643341,72.409348 359.516235,57.431568 348.506439,43.778038 
	C337.578735,30.226353 324.057098,20.057411 308.720825,12.603287 
	C299.543671,8.142759 289.183411,6.124467 279.386963,2.910722 
	C278.780914,2.711902 278.455811,1.656741 278.000000,1.000002 
z"/>
<path fill="none" opacity="1.000000" stroke="none" 
	d="
M230.000000,513.000000 
	C153.700836,513.000000 77.401672,513.000000 1.051254,513.000000 
	C1.051254,342.443909 1.051254,171.887802 1.051254,1.000000 
	C78.354454,1.000000 155.709381,1.000000 233.858002,1.323404 
	C233.821686,2.094644 233.038147,2.786253 232.154846,2.954655 
	C210.272690,7.126566 191.287827,17.105902 174.736954,31.806871 
	C161.554535,43.515869 151.916458,57.885544 145.098434,74.014526 
	C139.698792,86.788162 136.076675,100.150650 136.026520,114.181145 
	C135.934265,139.995163 136.041107,165.809937 135.917267,191.623672 
	C135.908051,193.543304 135.239151,195.943604 133.985275,197.290146 
	C128.392227,203.296478 121.912865,208.546875 116.780998,214.900177 
	C101.695587,233.576126 90.237312,254.293182 83.208923,277.392303 
	C78.190422,293.885864 75.343803,310.767670 75.205658,327.905304 
	C75.114899,339.165924 76.761047,350.469086 78.046257,361.705505 
	C79.942230,378.281647 85.402397,393.863037 92.465294,408.868042 
	C98.426476,421.532379 105.819267,433.289398 114.557793,444.327240 
	C124.851349,457.329285 136.278427,469.122284 149.998810,478.276276 
	C161.129623,485.702545 172.916977,492.285309 184.912415,498.235657 
	C196.956268,504.210022 209.881485,508.020386 223.265823,510.097931 
	C225.604370,510.460938 227.759933,512.002625 230.000000,513.000000 
z"/>
<path fill="#FFFFFF" opacity="1.000000" stroke="none" 
	d="
M230.468658,513.000000 
	C227.759933,512.002625 225.604370,510.460938 223.265823,510.097931 
	C209.881485,508.020386 196.956268,504.210022 184.912415,498.235657 
	C172.916977,492.285309 161.129623,485.702545 149.998810,478.276276 
	C136.278427,469.122284 124.851349,457.329285 114.557793,444.327240 
	C105.819267,433.289398 98.426476,421.532379 92.465294,408.868042 
	C85.402397,393.863037 79.942230,378.281647 78.046257,361.705505 
	C76.761047,350.469086 75.114899,339.165924 75.205658,327.905304 
	C75.343803,310.767670 78.190422,293.885864 83.208923,277.392303 
	C90.237312,254.293182 101.695587,233.576126 116.780998,214.900177 
	C121.912865,208.546875 128.392227,203.296478 133.985275,197.290146 
	C135.239151,195.943604 135.908051,193.543304 135.917267,191.623672 
	C136.041107,165.809937 135.934265,139.995163 136.026520,114.181145 
	C136.076675,100.150650 139.698792,86.788162 145.098434,74.014526 
	C151.916458,57.885544 161.554535,43.515869 174.736954,31.806871 
	C191.287827,17.105902 210.272690,7.126566 232.154846,2.954655 
	C233.038147,2.786253 233.821686,2.094644 234.325851,1.323404 
	C248.354233,1.000000 262.708466,1.000000 277.531342,1.000002 
	C278.455811,1.656741 278.780914,2.711902 279.386963,2.910722 
	C289.183411,6.124467 299.543671,8.142759 308.720825,12.603287 
	C324.057098,20.057411 337.578735,30.226353 348.506439,43.778038 
	C359.516235,57.431568 367.643341,72.409348 371.975067,89.320869 
	C373.899963,96.835976 375.671509,104.622147 375.819794,112.317902 
	C376.301178,137.300613 376.158722,162.300385 375.851715,187.288620 
	C375.797089,191.734009 377.818390,194.172363 380.440216,197.030533 
	C389.366364,206.761337 398.898285,216.083939 406.698395,226.668198 
	C421.172272,246.308334 430.452545,268.594635 435.631134,292.415588 
	C437.496613,300.996552 438.044617,309.878235 438.954254,318.647522 
	C439.531494,324.211945 440.219666,329.853607 439.904266,335.406464 
	C438.579346,358.734619 434.451965,381.437958 425.069122,403.094757 
	C414.355316,427.823517 399.125366,449.315277 379.092316,467.101318 
	C369.677155,475.460449 358.874329,482.374115 348.219025,489.190399 
	C333.501038,498.605499 317.144867,504.352844 300.191956,508.349976 
	C295.457947,509.466187 290.610168,510.093414 285.835266,511.048370 
	C284.946350,511.226196 284.156281,511.898163 283.660278,512.671021 
	C266.312439,513.000000 248.624878,513.000000 230.468658,513.000000 
M279.123352,172.059418 
	C275.700653,171.708282 272.284912,171.159851 268.854126,171.039429 
	C252.022598,170.448685 235.290955,171.246628 218.910782,175.560974 
	C200.153809,180.501358 182.517410,187.974213 166.531250,199.118118 
	C154.214264,207.704254 142.948776,217.515991 133.499359,229.158310 
	C123.660561,241.280411 115.484161,254.525620 109.472855,269.018066 
	C102.640152,285.490784 98.070152,302.584015 97.109398,320.385773 
	C96.123940,338.645416 97.820122,356.673431 102.885880,374.441254 
	C109.693077,398.317108 121.141464,419.534485 137.591537,437.975830 
	C148.006622,449.651642 159.962677,459.591339 173.329437,467.925201 
	C197.376724,482.918030 223.690430,490.719177 251.712830,491.698425 
	C264.506866,492.145569 277.541199,490.074249 290.245117,487.869415 
	C320.472839,482.623352 346.097900,467.862946 368.224030,447.104950 
	C384.337463,431.987854 396.511627,413.920746 405.195770,393.496338 
	C411.348053,379.026733 415.233337,363.963623 416.823975,348.438019 
	C417.772369,339.181030 417.471954,329.716827 416.862427,320.402740 
	C416.300690,311.818695 415.141968,303.183472 413.254791,294.793793 
	C408.090576,271.835297 397.960815,251.262878 383.410095,232.620438 
	C369.552887,214.866440 352.749512,200.858215 333.189514,190.104813 
	C316.579926,180.973465 298.708313,175.270279 279.123352,172.059418 
M158.000397,117.549286 
	C158.000397,137.484299 158.000397,157.419327 158.000397,177.685623 
	C223.142319,139.898239 288.262787,139.280624 354.000122,175.883072 
	C354.000122,155.486969 354.057404,135.346130 353.952362,115.206169 
	C353.931000,111.114975 353.741516,106.930267 352.874878,102.953125 
	C347.069946,76.314842 333.363739,54.435520 310.596252,39.490940 
	C284.418732,22.307978 255.739349,17.948315 225.556366,27.858078 
	C206.781540,34.022285 191.218628,44.864315 178.945709,60.488514 
	C165.977646,76.997681 158.697601,95.527214 158.000397,117.549286 
z"/>
<path fill="none" opacity="1.000000" stroke="none" 
	d="
M279.534302,172.249985 
	C298.708313,175.270279 316.579926,180.973465 333.189514,190.104813 
	C352.749512,200.858215 369.552887,214.866440 383.410095,232.620438 
	C397.960815,251.262878 408.090576,271.835297 413.254791,294.793793 
	C415.141968,303.183472 416.300690,311.818695 416.862427,320.402740 
	C417.471954,329.716827 417.772369,339.181030 416.823975,348.438019 
	C415.233337,363.963623 411.348053,379.026733 405.195770,393.496338 
	C396.511627,413.920746 384.337463,431.987854 368.224030,447.104950 
	C346.097900,467.862946 320.472839,482.623352 290.245117,487.869415 
	C277.541199,490.074249 264.506866,492.145569 251.712830,491.698425 
	C223.690430,490.719177 197.376724,482.918030 173.329437,467.925201 
	C159.962677,459.591339 148.006622,449.651642 137.591537,437.975830 
	C121.141464,419.534485 109.693077,398.317108 102.885880,374.441254 
	C97.820122,356.673431 96.123940,338.645416 97.109398,320.385773 
	C98.070152,302.584015 102.640152,285.490784 109.472855,269.018066 
	C115.484161,254.525620 123.660561,241.280411 133.499359,229.158310 
	C142.948776,217.515991 154.214264,207.704254 166.531250,199.118118 
	C182.517410,187.974213 200.153809,180.501358 218.910782,175.560974 
	C235.290955,171.246628 252.022598,170.448685 268.854126,171.039429 
	C272.284912,171.159851 275.700653,171.708282 279.534302,172.249985 
M245.994354,376.970642 
	C245.996399,385.031555 245.945175,393.093109 246.044342,401.152832 
	C246.064758,402.811920 246.646484,404.464081 246.996170,406.895294 
	C247.963867,413.823547 251.700699,416.544922 259.496307,415.998535 
	C264.593384,415.641266 267.979736,411.650940 267.993469,405.891998 
	C268.016846,396.086212 267.999908,386.280334 267.999908,376.557556 
	C285.793762,370.968597 297.698059,353.065765 292.991455,332.937073 
	C289.563080,318.275085 275.813019,304.146027 255.920654,305.089020 
	C238.642868,305.908081 224.347260,317.069092 221.201675,336.384399 
	C218.505188,352.942108 228.467590,370.921112 245.994354,376.970642 
z"/>
<path fill="none" opacity="1.000000" stroke="none" 
	d="
M158.000275,117.058540 
	C158.697601,95.527214 165.977646,76.997681 178.945709,60.488514 
	C191.218628,44.864315 206.781540,34.022285 225.556366,27.858078 
	C255.739349,17.948315 284.418732,22.307978 310.596252,39.490940 
	C333.363739,54.435520 347.069946,76.314842 352.874878,102.953125 
	C353.741516,106.930267 353.931000,111.114975 353.952362,115.206169 
	C354.057404,135.346130 354.000122,155.486969 354.000122,175.883072 
	C288.262787,139.280624 223.142319,139.898239 158.000397,177.685623 
	C158.000397,157.419327 158.000397,137.484299 158.000275,117.058540 
z"/>
<path fill="#FFFFFF" opacity="1.000000" stroke="none" 
	d="
M245.915543,376.043335 
	C228.467590,370.921112 218.505188,352.942108 221.201675,336.384399 
	C224.347260,317.069092 238.642868,305.908081 255.920654,305.089020 
	C275.813019,304.146027 289.563080,318.275085 292.991455,332.937073 
	C297.698059,353.065765 285.793762,370.968597 267.999908,376.557556 
	C267.999908,386.280334 268.016846,396.086212 267.993469,405.891998 
	C267.979736,411.650940 264.593384,415.641266 259.496307,415.998535 
	C251.700699,416.544922 247.963867,413.823547 246.994171,406.031067 
	C246.994370,398.695160 247.112350,392.220520 246.949997,385.752930 
	C246.868607,382.509796 246.276627,379.279449 245.915543,376.043335 
M249.136337,353.631836 
	C249.862000,353.998810 250.582703,354.375977 251.314117,354.731049 
	C256.349396,357.175751 263.451813,356.065033 267.262329,352.241638 
	C271.636078,347.853119 273.131989,342.246796 271.161957,337.626556 
	C268.156708,330.578491 262.679077,326.505585 256.526367,327.030884 
	C250.496750,327.545685 246.274063,330.884705 244.075607,336.385803 
	C241.457230,342.937561 243.460083,348.497253 249.136337,353.631836 
z"/>
<path fill="#FFFFFF" opacity="1.000000" stroke="none" 
	d="
M245.954956,376.506989 
	C246.276627,379.279449 246.868607,382.509796 246.949997,385.752930 
	C247.112350,392.220520 246.994370,398.695160 246.980835,405.643158 
	C246.646484,404.464081 246.064758,402.811920 246.044342,401.152832 
	C245.945175,393.093109 245.996399,385.031555 245.954956,376.506989 
z"/>
<path fill="none" opacity="1.000000" stroke="none" 
	d="
M248.872467,353.352600 
	C243.460083,348.497253 241.457230,342.937561 244.075607,336.385803 
	C246.274063,330.884705 250.496750,327.545685 256.526367,327.030884 
	C262.679077,326.505585 268.156708,330.578491 271.161957,337.626556 
	C273.131989,342.246796 271.636078,347.853119 267.262329,352.241638 
	C263.451813,356.065033 256.349396,357.175751 251.314117,354.731049 
	C250.582703,354.375977 249.862000,353.998810 248.872467,353.352600 
z"/>
</svg>